<svg xmlns="http://www.w3.org/2000/svg" xmlns:xlink="http://www.w3.org/1999/xlink" width="2000" zoomAndPan="magnify" viewBox="0 0 1500 1499.999933" height="2000" preserveAspectRatio="xMidYMid meet" version="1.0"><defs><filter x="0%" y="0%" width="100%" height="100%" id="73dfcfe408"><feColorMatrix values="0 0 0 0 1 0 0 0 0 1 0 0 0 0 1 0 0 0 1 0" color-interpolation-filters="sRGB"></feColorMatrix></filter><filter x="0%" y="0%" width="100%" height="100%" id="00623a82ea"><feColorMatrix values="0 0 0 0 1 0 0 0 0 1 0 0 0 0 1 0.2126 0.7152 0.0722 0 0" color-interpolation-filters="sRGB"></feColorMatrix></filter><clipPath id="a1a0e7cd2f"><path d="M 260.289062 549 L 1239.789062 549 L 1239.789062 951 L 260.289062 951 Z M 260.289062 549 " clip-rule="nonzero"></path></clipPath><mask id="e54f5c2f72"><g filter="url(#73dfcfe408)"><g filter="url(#00623a82ea)" transform="matrix(0.956543, 0, 0, 0.956651, 260.290206, 548.664221)"><image x="0" y="0" width="1024" height="421" preserveAspectRatio="xMidYMid meet"></image></g></g></mask><mask id="9f287009aa"><g filter="url(#73dfcfe408)"><g filter="url(#00623a82ea)" transform="matrix(1.0299, 0, 0, 1.028963, -1022.476871, 149.999967)"><image x="0" y="0" width="3194" height="1312" preserveAspectRatio="xMidYMid meet"></image></g></g></mask></defs><g clip-path="url(#a1a0e7cd2f)"><g mask="url(#e54f5c2f72)"><g transform="matrix(0.956543, 0, 0, 0.956651, 260.290206, 548.664221)"><image x="0" y="0" width="1024" height="421" preserveAspectRatio="xMidYMid meet"></image></g></g></g><g mask="url(#9f287009aa)"><g transform="matrix(1.0299, 0, 0, 1.028963, -1022.476871, 149.999967)"><image x="0" y="0" width="3194" height="1312" preserveAspectRatio="xMidYMid meet"></image></g></g></svg>